
        <svg xmlns="http://www.w3.org/2000/svg" xmlns:xlink="http://www.w3.org/1999/xlink" version="1.1" width="3324.324324324325" 
        height="1589.6367150384028" viewBox="0 0 3324.324324324325 1589.6367150384028">
			
			<g transform="scale(16.216216216216218) translate(10, 10)">
				<defs id="SvgjsDefs1974"><linearGradient id="SvgjsLinearGradient1979"><stop id="SvgjsStop1980" stop-color="#26275f" offset="0"></stop><stop id="SvgjsStop1981" stop-color="#813e96" offset="0.14"></stop><stop id="SvgjsStop1982" stop-color="#2e64af" offset="0.29"></stop><stop id="SvgjsStop1983" stop-color="#3faa49" offset="0.5"></stop><stop id="SvgjsStop1984" stop-color="#f2e64a" offset="0.71"></stop><stop id="SvgjsStop1985" stop-color="#f2903b" offset="0.86"></stop><stop id="SvgjsStop1986" stop-color="#ed4533" offset="1"></stop></linearGradient><linearGradient id="SvgjsLinearGradient1987"><stop id="SvgjsStop1988" stop-color="#00ddff" offset="0"></stop><stop id="SvgjsStop1989" stop-color="#ff00d4" offset="1"></stop></linearGradient></defs><g id="SvgjsG1975" featureKey="2ou6gm-0" transform="matrix(1.3,0,0,1.3,-9.1,-2.5815022230148315)" fill="url(#SvgjsLinearGradient1979)"><path xmlns="http://www.w3.org/2000/svg" d="M22.355,5.978a1,1,0,0,0,1.374.337,15.892,15.892,0,0,1,16.542,0,1,1,0,0,0,1.374-.337.985.985,0,0,0,.134-.38,1,1,0,0,0-.47-1,17.893,17.893,0,0,0-18.618,0,1,1,0,0,0-.47,1A.985.985,0,0,0,22.355,5.978Z"></path><path xmlns="http://www.w3.org/2000/svg" d="M35.461,12.626a9.866,9.866,0,0,0-6.922,0,1,1,0,0,0,.7,1.881,7.847,7.847,0,0,1,5.518,0,1,1,0,0,0,.7-1.881Z"></path><path xmlns="http://www.w3.org/2000/svg" d="M38.44,8.575a14,14,0,0,0-12.88,0,1,1,0,0,0,.92,1.783,12,12,0,0,1,11.04,0,1,1,0,0,0,.92-1.783Z"></path><path xmlns="http://www.w3.org/2000/svg" d="M53,17H11a4,4,0,0,0-4,4V48.088a4.005,4.005,0,0,0,4,4H27.507L26.188,60H22.069a1,1,0,0,0-1,1v.007h0a.982.982,0,0,0,.055.271.992.992,0,0,0,.023.111,1,1,0,0,0,.922.618H41.93a1,1,0,0,0,.922-.618.992.992,0,0,0,.023-.111.982.982,0,0,0,.055-.271h0V61a1,1,0,0,0-1-1H37.812l-1.319-7.912H53a4.005,4.005,0,0,0,4-4V21A4,4,0,0,0,53,17ZM9,44V21.008a2.006,2.006,0,0,1,2-2H53a2.006,2.006,0,0,1,2,2V44Z"></path><path xmlns="http://www.w3.org/2000/svg" d="M35.5,25.943a1,1,0,1,0-1,1.733,5,5,0,1,1-5,0,1,1,0,1,0-1-1.733,7,7,0,1,0,7,0Z"></path><path xmlns="http://www.w3.org/2000/svg" d="M32,32a1,1,0,0,0,1-1V25a1,1,0,0,0-2,0v6A1,1,0,0,0,32,32Z"></path></g><g id="SvgjsG1976" featureKey="kZnDdN-0" transform="matrix(3.759398172760167,0,0,3.759398172760167,83.49624126868216,-9.556389036561)" fill="url(#SvgjsLinearGradient1987)"><path d="M12.52 20 l-1.44 -3.3 l-7.48 0 l-1.44 3.3 l-1.76 0 l6.24 -14 l1.38 0 l6.26 14 l-1.76 0 z M4.22 15.3 l6.24 0 l-3.12 -7.12 z M25.04 20 l-5.42 -6.54 l-2.04 2.22 l0 4.32 l-1.7 0 l0 -14 l1.7 0 l0 7.5 l6.82 -7.5 l2.08 0 l-5.82 6.34 l6.34 7.66 l-1.96 0 z"></path></g>
			</g>
		</svg>
	